/* XPM */
static char *svn[]={
"32 32 100 2",
"Qt c None",
".# c #809cc8",
".E c #819dc8",
"#k c #829dc8",
"#D c #829dc9",
"#w c #839ec9",
".w c #849fc9",
"#p c #849fca",
".J c #86a1ca",
"#n c #87a1cb",
".g c #88a2cb",
".x c #89a3cc",
".n c #8ca5cd",
".O c #8da6ce",
".3 c #8ea7ce",
"#G c #91a9cf",
"#t c #91aacf",
".a c #93aad0",
"#z c #93abd0",
".4 c #94abd0",
"#H c #94acd0",
".V c #95acd1",
".v c #96add1",
"#m c #98aed2",
"#j c #9ab0d3",
"#E c #9bb1d3",
".F c #9db3d4",
".I c #a0b5d6",
".W c #a1b6d6",
".h c #a3b7d7",
"#A c #a5b9d8",
".D c #a6b9d8",
".5 c #a7bad9",
"#q c #a8bbd9",
".y c #a9bcda",
".o c #aabdda",
".K c #abbedb",
".u c #acbedb",
".b c #adbfdb",
"#d c #aec0dc",
"#c c #afc1dc",
"#x c #b0c1dc",
".6 c #b2c2dd",
".N c #b2c3de",
"#i c #b3c4de",
"#u c #b4c4de",
"#b c #b5c5df",
".Q c #b7c7e0",
".X c #bac9e1",
"#C c #bccbe2",
".7 c #bdcbe2",
"#l c #bfcde3",
".i c #c1cfe4",
".C c #c4d1e5",
".Y c #c5d2e6",
".c c #c6d3e6",
".U c #c8d4e7",
".8 c #c9d5e7",
".p c #cad5e8",
"#h c #cdd8e9",
"#y c #ced9ea",
".Z c #d0daea",
".L c #d1dbeb",
"#s c #d2dbeb",
".R c #d3dcec",
".9 c #d5deec",
".t c #d8e1ee",
"#g c #d9e1ee",
".0 c #dbe3ef",
".j c #dce4f0",
".d c #dde5f0",
".B c #e0e7f1",
"#. c #e1e7f2",
"#F c #e2e8f2",
".1 c #e3e9f2",
".S c #e4eaf3",
".G c #e5eaf3",
".H c #e6ebf4",
"#a c #e6ecf4",
".q c #e8edf5",
".P c #e9eef5",
".z c #ebeff6",
".2 c #edf1f7",
".m c #eef2f7",
".T c #eff3f8",
".s c #f1f4f9",
"#e c #f2f4f9",
"## c #f3f5f9",
".e c #f5f7fa",
".k c #f7f9fb",
"#o c #f8f9fc",
"#B c #f9fafc",
"#r c #f9fbfc",
"#v c #fafbfc",
".A c #fafbfd",
"#f c #fbfcfd",
".M c #fdfdfe",
".l c #fdfefe",
".r c #fefefe",
".f c #ffffff",
"QtQtQtQtQtQtQtQtQtQtQtQtQtQtQtQtQtQtQtQtQtQtQtQtQtQtQtQtQtQtQtQt",
"QtQtQtQtQtQtQtQtQtQtQtQtQtQtQtQtQtQtQtQtQtQtQtQtQtQtQtQtQtQtQtQt",
"QtQtQtQtQtQtQtQtQtQtQtQtQtQtQtQtQtQtQtQtQtQtQtQtQtQtQtQtQtQtQtQt",
"QtQtQtQtQtQtQtQtQtQtQtQtQtQtQtQtQtQtQtQtQtQtQtQtQtQtQtQtQtQtQtQt",
"QtQtQtQtQtQtQtQtQtQtQtQtQtQtQtQtQtQtQtQtQtQtQtQtQtQtQtQtQtQtQtQt",
".#.#.#.#.#.#.#.#.#.#.#.#.#.#.#.#.#.#.#.#.#.#.#.#.#.#.a.b.c.d.e.f",
".#.#.#.#.#.#.#.#.#.#.#.#.#.#.#.#.#.#.#.#.#.g.h.i.j.k.f.f.f.f.l.m",
".#.#.#.#.#.#.#.#.#.#.#.#.#.#.#.#.#.n.o.p.q.r.f.f.r.s.t.i.u.v.w.#",
".#.#.#.#.#.#.#.#.#.#.#.#.#.x.y.p.z.r.f.f.A.B.C.D.n.#.#.#.#.#.#.#",
".#.#.#.#.#.#.#.#.#.E.F.i.G.l.f.f.r.H.i.I.w.#.#.#.#.#.#.#.#.#.#.#",
".#.#.#.#.#.#.J.K.L.e.f.f.f.M.j.N.O.#.#.#.#.#.#.#.#.#.#.#.#.#.#.#",
".#.#.#.J.b.t.A.f.f.f.f.P.Q.n.#.#.#.#.#.#.#.#.#.#.#.#.#.#.#.#.#.#",
".E.h.R.A.f.f.f.f.f.S.h.#.#.#.#.#.#.#.#.#.#.#.#.#.#.#.#.#.#.#.#.#",
".T.f.f.f.f.f.f.f.U.#.#.#.#.#.#.#.#.#.#.#.#.#.g.V.W.b.X.Y.Z.0.1.2",
".f.f.f.f.f.f.f.f.U.V.O.3.4.F.5.6.7.8.9#..2.A.f.f.f.f.f.f.f.f.f.f",
".f.f.f.f.f.f.f.f.f.f.f.f.f.f.f.f.f.f.f.f.f.f.f.f.f.f.f.f.f.f.f.f",
".f.f.f.f.f.f.f.f.f.f.f.f.f.f.f.f.f.f.f.f.f.f.f.f.f.f.f.f.f.f.f.f",
".f.f.f.f.f.f.f.f.f.f.f.f.f.l###a.0.L.c.7#b#c.u#d.i#e.f.f.f.f.f.f",
".f.f.f#f.T.S#g#h.i#i.5#j.O#k.#.#.#.#.#.#.#.#.#.#.##l.f.f.f.f.f.f",
"#m.3.J.#.#.#.#.#.#.#.#.#.#.#.#.#.#.#.#.#.#.#.##k.Q#f.f.f.f.f.f#e",
".#.I.O.I.#.#.#.#.#.#.#.#.#.#.#.#.#.#.#.#.##n#b.2.f.f.f.f#o.L.h.E",
".I.e.U.e.I.#.#.#.#.#.#.#.#.#.#.#.#.##p#q.R#r.f.f.f#o#s#q.w.#.#.#",
".#.I.O.I.#.#.#.#.#.#.#.#.#.#.##t#u#g#v.f.f.f.m.8.h#w.#.#.#.#.#.#",
".I.e.U.e.I.#.#.#.#.#.##t#x#y.T.f.f.f#o#g.Q#z.#.#.#.#.#.#.#.#.#.#",
".#.I.O.I.#.#.n#A#l.t##.f.f.f#B.j#C.F#D.#.#.#.#.#.#.#.#.#.#.#.#.#",
".O.I#i.U.d.e.f.f.f.f.e.t.X#E#D.#.#.#.#.#.#.#.#.#.#.#.#.#.#.#.#.#",
".f.f.f.f.f#B#F.U.u#G.#.#.#.#.#.#.#.#.#.#.#.#.#.#.#.#.#.#.#.#.#.#",
".2.t.C.b#H.E.#.#.#.#.#.#.#.#.#.#.#.#.#.#.#.#.#.#.#.#.#.#.#.#.#.#",
"QtQtQtQtQtQtQtQtQtQtQtQtQtQtQtQtQtQtQtQtQtQtQtQtQtQtQtQtQtQtQtQt",
"QtQtQtQtQtQtQtQtQtQtQtQtQtQtQtQtQtQtQtQtQtQtQtQtQtQtQtQtQtQtQtQt",
"QtQtQtQtQtQtQtQtQtQtQtQtQtQtQtQtQtQtQtQtQtQtQtQtQtQtQtQtQtQtQtQt",
"QtQtQtQtQtQtQtQtQtQtQtQtQtQtQtQtQtQtQtQtQtQtQtQtQtQtQtQtQtQtQtQt"};
